<svg id="black" xmlns="http://www.w3.org/2000/svg" viewBox="0 0 474.01 610.67"><title>anchor</title><path d="M451,358.36c-2.45-4.9-6-12.19-12.09-13a11.33,11.33,0,0,0-4.37.34c-2.54.65-3.21,2.63-4.62,4.64q-2.4,3.42-4.69,6.92-4.46,6.81-8.49,13.9a256.32,256.32,0,0,0-14.14,29,27.4,27.4,0,0,0-1.73,6.24,15.83,15.83,0,0,0,.45,4.16c1.42-.2,3-.09,4.23-.64,5.64-2.45,11.16-5.18,16.81-7.62,1.89-.81,4-1,7-1.79-9.12,35.44-19.9,68.74-55.59,85.16-22,10.14-45.75,14.29-70,13.41-17.18-.62-28.91-12.28-30.19-29.45-1.65-22.25-2.57-44.56-3.75-66.84Q267,348.66,264.2,294.52q-2.58-49.65-5.08-99.3a25.57,25.57,0,0,1,.22-2.88c6.16-.46,12.26-.88,18.34-1.37,7.13-.58,14.25-1.44,21.4-1.73a11.78,11.78,0,0,1,6.32,2.17c2.65,1.72,4.49,1.64,6.25-1,2.8-4.28,6.72-4.52,10.27-.72,6.57,7.06,15.92,9.13,24.13,5.35,8.47-3.9,13.12-12.59,11.85-22.17-1.15-8.65-8.37-15.85-17.69-17.24-7.11-1.06-13.08,1.5-18,6.68-3.92,4.17-7.42,4-10.65-.46-1.84-2.55-3.89-2.7-6.36-.76-1.18.92-2.7,2.15-4,2.06-14.42-1-28.83-2.23-43.79-3.45L256,134.88c-.28-5-.31-10-.85-15-.42-3.84.59-5.77,4.47-7.4,24.53-10.34,37.9-33.85,35.23-61.18C292.56,27.67,273.55,7,249.26,1.62L242,0H232c-6.52,1.9-13.46,2.92-19.47,5.85-22.08,10.74-34,28.8-33.73,53.37.25,25,12.78,42.87,35.5,53.25,3.7,1.69,4.83,3.34,4.52,7.35-.9,11.62-1.38,23.27-1.77,34.92-.13,3.86-1.19,5.38-5.44,5.57-11.8.54-23.57,1.76-35.36,2.64-2.85.21-5.78,1.1-8.1-2.09-.52-.72-4.6-.15-5.64,1-3.45,4-6.85,4.49-10.42.7-8.7-9.25-21.49-9.76-30.17-1.21a20.79,20.79,0,0,0,0,29.4l.2.2c8.62,8.37,21.56,7.64,30.19-1.69,3.19-3.45,7.39-3.12,10,.87,1.89,2.87,3.87,3.17,6.54.87,1.21-1,3-2.11,4.46-2,13.13.84,26.24,1.94,39.35,3a14,14,0,0,1,2.27.64c-.2,2.86-.43,5.64-.57,8.42-1.77,35.43-3.45,70.86-5.29,106.29q-3.76,72.34-7.69,144.67c-.31,5.82-.46,11.65-1,17.45-1.58,17-13,28.92-30.14,29.46-11.53.36-23.2-1.32-34.69-3-13.71-2-27.05-5.61-39.41-12.16C73.89,472,61.48,452.36,53.21,429.55c-3.31-9.14-5.76-18.59-9.07-29.43,4.29,1.3,7.16,1.89,9.8,3,4.89,2.09,9.62,4.57,14.49,6.72a17.38,17.38,0,0,0,4.21.73c.15-1.55.85-3.3.36-4.61-2.54-6.85-4.75-13.93-8.25-20.28q-6.55-11.89-13.57-23.5c-3.67-6.06-7.18-15.52-15.83-14.32a15.48,15.48,0,0,0-7.7,3.46c-1.78,1.57-2.9,4.13-4.15,6.18-3.08,5-6,10.17-8.76,15.4A205.11,205.11,0,0,0,1.12,404.83,14.6,14.6,0,0,1,0,407v5c2.6-.69,5.37-1,7.78-2.14,6.39-2.92,12.64-6.17,19.68-9.65v15.92c0,49.18,19,88.45,60.2,116.29,22.4,15.15,46.84,26.16,72.53,34.11,27.93,8.64,52.23,23.13,74,42.35a25.94,25.94,0,0,0,2.72,1.79c0-2.61-.06-4.57,0-6.54,1-27,12.25-42.6,37.65-51.79,5.63-2,11.35-3.84,17.1-5.5,25.92-7.49,51.78-15,76-27.28,29.44-14.88,50.49-37.1,60.86-68.76,2.28-7,4-14.06,6.46-22.54a27.89,27.89,0,0,1,0,3.43c-3.49,18.3-9.48,35.64-19.48,51.5-16,25.34-39.31,41.81-66,53.94-19.39,8.82-39.3,16.47-58.79,25.06-15.94,7-31.21,15.34-42.28,29.33-4.22,5.34-7.39,11.52-11,17.31l1.32.88c1-.83,2-1.63,3-2.48,20.41-17.56,42.81-31.52,68.78-39.53a325.44,325.44,0,0,0,58.8-24.8C421.8,514.55,448.1,471,446.54,411c-.08-3.1,0-6.21,0-9.91a37,37,0,0,1,5.4,1.65c5.39,2.61,10.63,5.52,16.06,8,1.8.83,4,.79,6,1.15v-5C466.37,390.72,459,374.37,451,358.36ZM345.27,181.17a8.33,8.33,0,0,1-.93,1.07,7.91,7.91,0,0,1-13.65-5.53,8.26,8.26,0,0,1,2.1-6c1.81-1.84,4.58-2.39,7.16-2.25C346.46,168.77,349,176.08,345.27,181.17ZM338.86,159c5.75.69,8.09,3.93,5.58,8.35-4.19-1.44-8.7-1.67-12.52,1.13-4,3-4.15,9.59-1.77,13.79-1.88,1.17-4.92,1.84-6.46,1.07-5.83-2.93-4-11.11-1.41-15.49C325.69,162.21,332.1,158.24,338.86,159ZM139.44,182.93c-4.22,2.85-10.13.49-11.81-4.54a7.67,7.67,0,0,1,1.18-7.18,9,9,0,0,1,5.74-2.93,7.69,7.69,0,0,1,5.43,1,7,7,0,0,1,2.47,3.41,9,9,0,0,1-1.4,8.76A7.93,7.93,0,0,1,139.44,182.93ZM143,168.43a12.19,12.19,0,0,0-13.4-.54c-5.38,3.38-5.65,10.43-1.55,14.88-1.89.75-4,1.09-5.34.5-3.26-1.45-3.89-6-3.64-9.16.33-4.24,3.06-8.07,6.19-10.8a17,17,0,0,1,12-4.29C143.86,159.35,146.36,163.26,143,168.43Zm18.62,15-4.76-.54V169.16l4.76-.32ZM279.17,60.56c.68,17.66-10.47,34.84-24.25,37.38-1.57-5-1.53-5.15,2.21-7.71,19.35-13.23,23-37.53,8.39-55.67-.87-1.08-1.62-2.27-2.67-3.75C269.9,31.53,278.7,48.17,279.17,60.56ZM183,49.72c3.7-24.08,23.43-42.43,49-45.56,16-2,39.45,7.37,43.22,18-9.35-7.82-19.59-13.08-32-13.35s-24.11,2.71-33.55,10.74c-26.76,22.75-30.64,48.86-8.9,78.43C188.5,92.21,180.13,68.24,183,49.72Zm21.59,0v0a33.68,33.68,0,0,1,34-24.75A34.12,34.12,0,0,1,270,51.77c2.91,14.3-4,29.94-15.9,35.38-.14-4.79-3.48-6.19-7.32-6.28-6.94-.17-13.9-.08-20.84.25-3.39.16-6.19,1.66-5.81,6.42A32.93,32.93,0,0,1,204.56,49.7Zm16.09,105.23q1.58-32.4,3.17-64.8c.28-5.76,1.63-6.77,8.24-5.62v4.84q-.52,30.69-1,61.39c-.16,9.4-.13,9.4-10.38,8.86,0-1.75-.09-3.2,0-4.65ZM208.3,86.22v0l1.21-1.41,11,8.29-1.45,1.7C214.91,92.57,211,90.09,208.3,86.22ZM54.59,442.28c9.45,21.65,24.2,38.62,46.48,47.92A171.18,171.18,0,0,0,165.36,503c24.22.29,37.82-13.3,39.19-37.78,2.88-51.56,5.49-103.14,8.12-154.71,1.87-36.51,3.59-72.91,5.41-109.35.15-2.91.62-5.8,1-8.89l11,.54v6.6c-.54,27.82-1.14,55.64-1.61,83.46q-1.57,92.72-3,185.44c-.39,24.82-15,43.84-38.77,50.86-14.69,4.34-29.06,1.89-43.42-1.19-29.26-6.28-55.15-18.66-74.53-42.33-16.64-20.34-24.46-44.17-27.28-69.91a26.35,26.35,0,0,1,1.83,4.54C47,421,50.09,432,54.59,442.28ZM5,406.67c.84-.33,2.16-6.53,2.53-7.58q1.4-3.92,3-7.77,3.18-7.84,7-15.4,3.71-7.37,7.93-14.47c2.71-4.56,4.35-8.84,10.06-9.67a9.61,9.61,0,0,1,3.46,0c3.19.71,4.62,4.42,6.11,6.92L51.2,369c1,1.72,12.21,20.68,12.32,20.62l-1,.55L52.52,378l-5.14-6.28c-1.17-1.43-1.85-3-4-3.17-4.09-.22-5.24,5.27-6.8,8.13C29.47,389.92,19.23,401,5,406.67ZM230.38,578.2C222.45,569.08,212,564,201,559.85c-7.46-2.83-15-5.41-22.61-7.9-24.18-7.92-48.63-15.11-71.23-27.15-26.8-14.28-48-34-60-62.39A135.86,135.86,0,0,1,36.5,412.12l1.62,10.31c4.71,29.76,16,56.21,38.71,76.9,15.89,14.48,34.55,24.3,54.65,31.29,20.56,7.15,41.47,13.32,62.13,20.2,10.77,3.58,21.27,8,29.6,16,3.17,3.06,5.6,6.9,8.36,10.38Zm1.17-389.38h0c-7.44.24-14.89-.36-22.33-.84-9.31-.62-18.61-1.26-27.91-2-11.63-.88-11.62-1-11.54-12.89a17.83,17.83,0,0,0,0-2c-.32-3,1.24-3.92,4.07-4.23a591.75,591.75,0,0,1,61.5-3.6c8.71,0,17.41,0,26.11.32q5,.16,10.09.39c3,.14,9.38-.59,9.67,3.47a7.4,7.4,0,0,1-2.25,5.25c-2.37,2.63-5.55,4.4-8.73,6a98.52,98.52,0,0,1-29.94,9.41A82.74,82.74,0,0,1,231.55,188.82ZM421.29,448.3c-21.15,50.17-71.46,73.41-111.57,73.73a96.32,96.32,0,0,1-14-.88c-28.79-4-47-23-47.48-51.32Q245.91,345,243.89,220c0-1.73,0-3.43,0-5.13l1.51-.08c.16,1.68.42,3.36.47,5,2.38,82.43,5,164.85,7,247.29.14,6.15.67,14.17,4.8,19.07,5.86,6.93,14,11.72,22.69,14.39a69.17,69.17,0,0,0,28.88,2.63c13.18-1.81,26.48-3,39.51-5.54,24.11-4.72,45-15.29,59.61-36,9.86-13.92,16.07-29.44,20.72-45.69,1-3.51,2-7,3.07-10.52C431.27,420.46,427.08,434.58,421.29,448.3ZM456.89,401a63.85,63.85,0,0,1-15.28-15.75,97.14,97.14,0,0,1-5.78-9.51,45.42,45.42,0,0,1-2.59-5.09c-.52-1.32-1.4-2.31-2.62-2.3a3,3,0,0,0-1.44.43,5.55,5.55,0,0,0-1.09.87,98.76,98.76,0,0,0-8.27,9.15l-9.34,11.44c1.09-1.33,1.69-3.62,2.44-5.18q1.41-2.92,2.89-5.8,3-5.79,6.26-11.42t7-11.18c1.83-2.73,3.78-7.5,7.78-6.91,4.92.72,7.33,6.16,9.58,9.89q4.56,7.55,8.64,15.38A232.42,232.42,0,0,1,469,407.61,60.77,60.77,0,0,1,456.89,401Z" transform="translate(0.01 -0.04)"/><polygon points="430.62 368.28 430.63 368.28 430.63 368.28 430.62 368.28"/></svg>